<?xml version="1.0" encoding="iso-8859-1"?>
<!-- Generator: Adobe Illustrator 18.1.1, SVG Export Plug-In . SVG Version: 6.00 Build 0)  -->
<svg version="1.1" id="Capa_1" xmlns="http://www.w3.org/2000/svg" xmlns:xlink="http://www.w3.org/1999/xlink" x="0px" y="0px"
	 viewBox="0 0 524.744 524.744" style="enable-background:new 0 0 524.744 524.744;" xml:space="preserve">
<g>
	<g>
		<path style="fill:#010002;" d="M243.543,180.196c4.582-4.383,11.255-6.574,20.021-6.574c17.53,0,25.897,8.566,25.102,25.699
			l-8.367,151.208c0,4.383-1.593,7.969-4.778,10.758c-3.188,2.789-7.175,4.383-11.953,4.781c-4.781,0-8.667-1.492-11.654-4.482
			s-4.682-6.674-5.08-11.057l-8.367-151.208C237.269,190.954,238.962,184.579,243.543,180.196z M262.371,377.423
			c-9.961,0-18.427,3.486-25.4,10.459c-6.973,6.976-10.459,15.241-10.459,24.803c0,9.564,3.487,17.732,10.459,24.507
			c6.972,6.771,15.439,10.157,25.4,10.157s18.426-3.386,25.4-10.157c6.973-6.775,10.459-14.943,10.459-24.507
			c0-9.563-3.487-17.828-10.459-24.803C280.799,380.909,272.332,377.423,262.371,377.423z M524.744,494.565
			c0,7.967-2.491,14.739-7.471,20.317c-4.982,5.578-10.859,8.367-17.634,8.367H25.102c-6.774,0-12.65-2.789-17.631-8.367
			S0,502.533,0,494.565c0-5.183,1.195-9.964,3.586-14.347L240.855,15.241c1.993-3.585,5.08-6.773,9.264-9.562
			c4.184-2.789,8.268-4.184,12.252-4.184s8.068,1.395,12.252,4.184c4.185,2.789,7.273,5.976,9.264,9.562l237.271,464.977
			C523.549,484.602,524.744,489.384,524.744,494.565z M456.012,466.474L262.371,86.364L68.73,466.474H456.012z"/>
	</g>
</g>
<g>
</g>
<g>
</g>
<g>
</g>
<g>
</g>
<g>
</g>
<g>
</g>
<g>
</g>
<g>
</g>
<g>
</g>
<g>
</g>
<g>
</g>
<g>
</g>
<g>
</g>
<g>
</g>
<g>
</g>
</svg>
